<?xml version="1.0" encoding="UTF-8" standalone="no"?>
<!-- Created with Inkscape (http://www.inkscape.org/) -->

<svg
   width="613"
   height="615.19"
   version="1.1"
   viewBox="0 0 613 615.19"
   id="svg10"
   sodipodi:docname="fcr_logo_square.svg"
   inkscape:version="1.1.2 (0a00cf5339, 2022-02-04)"
   xmlns:inkscape="http://www.inkscape.org/namespaces/inkscape"
   xmlns:sodipodi="http://sodipodi.sourceforge.net/DTD/sodipodi-0.dtd"
   xmlns="http://www.w3.org/2000/svg"
   xmlns:svg="http://www.w3.org/2000/svg">
  <defs
     id="defs14" />
  <sodipodi:namedview
     id="namedview12"
     pagecolor="#ffffff"
     bordercolor="#666666"
     borderopacity="1.0"
     inkscape:pageshadow="2"
     inkscape:pageopacity="0.0"
     inkscape:pagecheckerboard="0"
     showgrid="false"
     inkscape:zoom="1.1687446"
     inkscape:cx="286.20453"
     inkscape:cy="307.16719"
     inkscape:window-width="2256"
     inkscape:window-height="1430"
     inkscape:window-x="0"
     inkscape:window-y="50"
     inkscape:window-maximized="1"
     inkscape:current-layer="g8" />
  <g
     transform="translate(-253.93 -168.39)"
     id="g8">
    <g
       transform="translate(-865.01 -69.398)"
       id="g6">
      <path
         d="m680 620.62c0-0.20765 0.7875-0.99515 1.75-1.75 1.5861-1.2439 1.6214-1.2085 0.37756 0.37756-1.3064 1.6658-2.1276 2.1955-2.1276 1.3724zm11-9c0-0.20765 0.7875-0.99515 1.75-1.75 1.5861-1.2439 1.6214-1.2085 0.37756 0.37756-1.3064 1.6658-2.1276 2.1955-2.1276 1.3724zm13-12.122c1.8658-1.925 3.6173-3.5 3.8923-3.5s-1.0266 1.575-2.8923 3.5-3.6173 3.5-3.8923 3.5 1.0266-1.575 2.8923-3.5zm11-11.878c0-0.20765 0.7875-0.99515 1.75-1.75 1.5861-1.2439 1.6214-1.2085 0.37756 0.37756-1.3064 1.6658-2.1276 2.1955-2.1276 1.3724zm-28.394-8.7745c1.0417-1.4586 2.094-2.4586 2.3385-2.2222 0.24445 0.23641-0.60787 1.4298-1.894 2.6521l-2.3385 2.2222zm88.626-145.85c0-1.925 0.2058-2.7125 0.45733-1.75 0.25152 0.9625 0.25152 2.5375 0 3.5-0.25153 0.9625-0.45733 0.175-0.45733-1.75zm0-11c0-1.925 0.2058-2.7125 0.45733-1.75 0.25152 0.9625 0.25152 2.5375 0 3.5-0.25153 0.9625-0.45733 0.175-0.45733-1.75zm-168.36-140.75c-1.2439-1.5861-1.2085-1.6214 0.37756-0.37756 1.6658 1.3064 2.1955 2.1276 1.3724 2.1276-0.20765 0-0.99515-0.7875-1.75-1.75zm97.052-9-2.4243-2.75 2.75 2.4243c1.5125 1.3334 2.75 2.5709 2.75 2.75 0 0.78428-0.8098 0.14598-3.0757-2.4243zm-23.052-22c-1.2439-1.5861-1.2085-1.6214 0.37756-0.37756 1.6658 1.3064 2.1955 2.1276 1.3724 2.1276-0.20765 0-0.99515-0.7875-1.75-1.75z"
         fill="#AA0000"
         id="path2" />
      <path
         d="m 1323.9,852.63 c -9.2391,-0.90384 -14.4125,-10.73899 -13.83,-19.27169 -0.088,-16.82703 -0.6588,-33.7069 0.409,-50.50498 1.2532,-9.50245 11.0732,-16.20309 20.4053,-14.17466 8.2275,0.22849 15.0118,6.88921 15.3999,15.10946 0.5338,3.98837 0.5915,8.01966 0.8708,12.03027 -3.7523,0 -7.5047,0 -11.257,0 -0.3408,-5.2641 1.2097,-11.36893 -2.4208,-15.73709 -8.8865,-5.33393 -14.039,4.33616 -12.1346,12.18927 -0.1889,15.06837 -0.6666,30.16132 0.01,45.21842 2.1049,8.98432 16.8452,5.80355 14.4749,-3.56988 0.1309,-3.69889 0.048,-7.40112 0.072,-11.10162 3.733,0 7.466,0 11.199,0 -0.7336,8.99523 0.8406,19.71513 -6.4388,26.41289 -4.635,3.6294 -11.1104,4.237 -16.7582,3.39961 z m 118,0 c -9.6728,-0.95567 -14.647,-11.47966 -13.864,-20.28391 -0.019,-16.74757 -0.6888,-33.55746 0.6277,-50.26487 1.0605,-8.22529 8.9513,-14.2911 17.1704,-13.46222 7.605,-0.5573 15.9105,3.58855 17.6247,11.51266 1.4735,5.09576 1.282,10.44657 1.6953,15.68754 -3.7523,0 -7.5047,0 -11.257,0 -0.3408,-5.2641 1.2097,-11.36893 -2.4208,-15.73709 -8.8865,-5.33393 -14.039,4.33616 -12.1346,12.18927 -0.1889,15.06837 -0.6666,30.16132 0.01,45.21842 2.1049,8.98432 16.8452,5.80355 14.4749,-3.56988 0.1309,-3.69889 0.048,-7.40112 0.072,-11.10162 3.7483,0 7.4967,0 11.245,0 -0.7986,8.99685 0.6906,19.68161 -6.5023,26.42505 -4.6316,3.61931 -11.0995,4.22433 -16.7398,3.38665 z m -323,-41.311 c 0,-13.83333 0,-27.66667 0,-41.5 11,0 22,0 33,0 0,3.66667 0,7.33333 0,11 -7.3333,0 -14.6667,0 -22,0 0,8 0,16 0,24 5.6667,0 11.3333,0 17,0 0,3.66667 0,7.33333 0,11 -5.6667,0 -11.3333,0 -17,0 0,12.33333 0,24.66667 0,37 -3.6667,0 -7.3333,0 -11,0 0,-13.83333 0,-27.66667 0,-41.5 z m 50.5,40.15 c -8.0492,-3.38461 -9.5683,-12.87186 -9.2889,-20.60097 -0.3693,-20.34681 -0.1527,-40.69884 -0.2111,-61.04813 3.642,0 7.284,0 10.926,0 0.3169,22.31931 0.024,44.65729 0.9296,66.96062 -0.7822,8.46418 15.5263,8.38035 13.5718,-0.83517 1.0896,-21.73574 0.3703,-43.52514 0.5725,-65.28495 0.8643,-1.87672 5.1391,-0.34283 7.382,-0.841 3.6887,-1.03529 4.1076,1.19931 3.618,4.34234 -0.1431,20.97228 0.3736,41.96109 -0.4187,62.91967 -0.4275,7.39573 -5.8787,15.30749 -13.9228,15.28262 -4.356,0.291 -8.9844,0.6337 -13.1584,-0.89503 z m 39.5,-40.15 c 0,-13.83333 0,-27.66667 0,-41.5 3.6667,0 7.3333,0 11,0 0,24 0,48 0,72 7.3333,0 14.6667,0 22,0 0,3.66667 0,7.33333 0,11 -11,0 -22,0 -33,0 0,-13.83333 0,-27.66667 0,-41.5 z m 41,0 c 0,-13.83333 0,-27.66667 0,-41.5 3.6583,0 7.3167,0 10.975,0 0.175,23.83333 0.3501,47.66667 0.5253,71.5 7.1667,0.18922 14.3333,0.37844 21.5,0.56766 0,3.644 0,7.288 0,10.932 -11,0 -22,0 -33,0 -10e-5,-13.83322 -2e-4,-27.66644 -3e-4,-41.49966 z m 107,0 c 0,-13.83333 0,-27.66667 0,-41.5 3.6667,0 7.3333,0 11,0 0,27.66667 0,55.33333 0,83 -3.6667,0 -7.3333,0 -11,0 0,-13.83333 0,-27.66667 0,-41.5 z m 23,0 c 0,-13.83333 0,-27.66667 0,-41.5 9.9463,0.37948 20.4499,-1.09891 29.7546,3.10747 7.7336,4.08814 8.0261,13.52706 7.4938,21.16621 0.9483,7.1284 -4.1919,12.65467 -7.9645,17.06199 6.9329,2.54871 8.016,10.31318 8.2139,16.83248 0.5028,8.27001 0.6758,16.55558 1.0025,24.83375 -3.6641,-0.29602 -7.6997,0.73437 -11.079,-0.79579 -2.2075,-7.08896 -1.0415,-14.86978 -1.433,-22.24084 1.5038,-6.92424 -2.3369,-15.25642 -10.589,-12.6917 -3.6513,-0.71065 -4.5325,1.23407 -3.9657,4.56689 -0.1598,10.38606 -0.3196,20.77212 -0.4794,31.15818 -3.6513,0 -7.3027,0 -10.954,0 -10e-5,-13.83288 -10e-5,-27.66576 -2e-4,-41.49864 z m 22.6,-6.2653 c 4.811,-5.86165 4.1313,-15.40293 1.7942,-22.22288 -3.5049,-3.21549 -8.5967,-1.37799 -12.8945,-1.5109 -0.094,7.72578 -0.7308,15.47728 -0.067,23.186 3.057,1.82206 7.8379,1.65386 11.1674,0.54778 z m 72.4,6.2653 c 0,-13.83333 0,-27.66667 0,-41.5 3.6667,0 7.3333,0 11,0 0,24 0,48 0,72 7.3333,0 14.6667,0 22,0 0,3.66667 0,7.33333 0,11 -11,0 -22,0 -33,0 0,-13.83333 0,-27.66667 0,-41.5 z m 41,0 c 0,-13.83333 0,-27.66667 0,-41.5 11.3333,0 22.6667,0 34,0 0,3.64467 0,7.28933 0,10.934 -7.5,0.1885 -15,0.377 -22.5,0.5655 0,7.33333 0,14.66667 0,22 6.1667,0.19168 12.3333,0.38337 18.5,0.57505 0,3.61667 0,7.23333 0,10.85 -6.1667,0.19168 -12.3333,0.38337 -18.5,0.57505 0,8.66667 0,17.33333 0,26 7.5,0.1885 15,0.377 22.5,0.5655 0,3.64467 0,7.28933 0,10.934 -11.3333,0 -22.6667,0 -34,0 0,-13.83303 0,-27.66607 0,-41.4991 z m 63,-0.1437 c 0,-13.88133 0,-27.76267 0,-41.644 10.1977,0.78899 20.8915,-0.39444 30.5471,3.50333 7.7751,4.14508 6.6235,14.30901 6.6542,21.75044 1.1242,7.0188 -4.1054,12.24901 -7.915,16.42298 6.9805,2.46967 7.9896,10.29709 8.2108,16.77896 0.5027,8.27001 0.6758,16.55558 1.0025,24.83375 -3.8612,-0.55488 -9.091,1.52382 -11.6903,-1.96844 -2.2055,-10.25222 0.4147,-21.15575 -2.673,-31.25406 -2.5033,-4.16341 -8.0599,-2.40785 -12.137,-2.7805 0,12 0,24 0,36 -4,0 -8,0 -12,0 2e-4,-13.88082 5e-4,-27.76164 7e-4,-41.64246 z m 23.407,-7.2531 c 3.0742,-6.24525 3.7376,-14.51149 0.5357,-20.82985 -2.7521,-2.90963 -8.9159,-2.67295 -11.9423,-1.83942 0,8.18859 0,16.37718 0,24.56577 3.8052,-0.26409 8.3304,0.92894 11.4066,-1.8965 z m 22.186,45.147 c 4.3086,-26.24978 8.6146,-52.49997 12.9216,-78.75 5.5121,-0.11363 11.0382,-0.60992 16.5439,-0.29044 4.5369,27.42769 9.0468,54.85987 13.569,82.29 -3.7422,0.11552 -7.5156,0.68906 -11.2416,0.21899 -1.3428,-5.48522 -1.8265,-11.14367 -2.6972,-16.719 -5.3625,0.20491 -10.9192,-0.59643 -16.1187,0.88719 -1.4614,5.2599 -1.9261,10.73581 -2.8128,16.1128 -3.5933,0 -7.1867,0 -10.78,0 0.2053,-1.24985 0.4105,-2.49969 0.6158,-3.74954 z m 27.38,-24.5 c -1.7222,-13.86793 -3.7711,-27.72265 -6.3448,-41.456 -3.1987,7.43333 -2.9289,16.9012 -4.6361,25.11618 0.4044,5.98452 -6.7526,19.79868 4.5084,17.58962 1.9841,-0.30912 5.0934,0.54906 6.4725,-1.2498 z m 24.028,-13.25 c 0,-13.83333 0,-27.66667 0,-41.5 3.6667,0 7.3333,0 11,0 0,27.66667 0,55.33333 0,83 -3.6667,0 -7.3333,0 -11,0 0,-13.83333 0,-27.66667 0,-41.5 z m 23,0 c 0,-13.83333 0,-27.66667 0,-41.5 3.6583,0 7.3167,0 10.975,0 0.1752,23.83333 0.3503,47.66667 0.5253,71.5 7.1667,0.18922 14.3333,0.37844 21.5,0.56766 0,3.644 0,7.288 0,10.932 -11,0 -22,0 -33,0 -10e-5,-13.83322 -2e-4,-27.66644 -3e-4,-41.49966 z m -293,-91.084 c -25.9804,-2.25819 -51.7901,-7.67828 -75.8395,-17.94947 -52.8425,-21.83896 -97.8019,-62.68779 -123.2573,-114.02263 -17.2428,-34.21573 -26.9709,-72.49654 -25.9241,-110.92049 -0.2527,-19.98394 2.58,-39.87921 7.8392,-59.14152 20.707,-82.7123 89.4037,-151.25475 172.1868,-171.71904 15.2738,-4.38619 30.9935,-6.8418 46.8449,-7.77185 16.5572,-2.04699 33.1857,0.34098 49.655,2.0957 64.3458,10.0949 124.9102,46.02703 162.0444,99.91175 28.7285,41.13871 45.225,91.16871 43.9783,141.52656 -0.1038,47.7781 -15.453,95.1888 -42.954,134.20764 -14.0293,20.29824 -30.6383,38.96517 -50.6639,53.53414 -38.2733,29.78762 -85.7077,47.96756 -134.2657,49.89279 -9.8657,0.41151 -19.7805,0.99122 -29.6441,0.35642 z m 39.576,-9.4922 c 46.7744,-4.70063 92.1356,-24.03025 127.6129,-54.9126 19.4569,-17.37991 37.0948,-37.07723 49.8726,-59.94669 41.2513,-70.32556 41.2237,-162.61868 0.025,-232.95667 -16.8464,-29.46251 -40.6836,-54.63091 -68.2588,-74.28421 -51.9918,-36.62274 -119.405,-50.01703 -181.5004,-36.43414 -46.2742,9.50439 -88.9378,34.235 -120.9589,68.85651 -31.9567,33.74056 -52.8964,77.45712 -59.6582,123.39724 -10.0892,65.71381 9.2048,135.62271 52.9055,185.93746 43.2595,50.7859 109.1227,82.27269 176.1106,81.26905 7.9559,0.008 15.9272,-0.16568 23.8497,-0.92595 z m -172.38,-80.124 c -3.8254,-4.96414 -5.2073,-14.11267 0.7242,-18.43494 13.1416,-4.93706 27.1479,-7.16751 40.732,-10.63219 26.5656,-6.22706 53.2294,-12.07757 79.6547,-18.87607 6.9011,-3.07614 8.5795,-10.98501 8.8103,-17.81092 3.1373,-34.69651 3.1111,-69.61761 2.0621,-104.41584 -0.8076,-13.66955 -1.2888,-27.46753 -3.6034,-40.96676 -2.474,-7.91793 -12.2664,-8.37447 -18.9204,-10.60424 -11.6132,-2.9065 -23.3336,-5.393 -34.882,-8.55204 -4.6104,-5.75588 -1.8628,-14.60645 -2.6945,-21.59768 0.4175,-11.85192 -0.4733,-23.85329 1.3791,-35.59249 2.3248,-7.60226 9.1506,-13.21568 17.0993,-13.87809 24.5637,-3.16907 49.4391,-2.20411 74.1486,-2.37186 16.8152,0.54704 33.9337,-0.34498 50.458,3.31459 6.3497,1.38066 10.6641,6.96512 13.3372,12.40422 0.034,18.16531 0.827,36.34978 -0.043,54.50082 -3.7601,6.65519 -15.0695,5.52135 -22.0385,8.31214 -9.5015,2.60882 -19.6561,3.64537 -28.5001,8.13421 -7.3512,5.72045 -5.8676,15.94816 -7.0446,24.17771 -2.8543,42.87562 -2.9029,86.0117 0.8833,128.83011 -0.497,9.2818 6.2896,17.76375 15.8232,18.07805 36.7151,9.02945 73.7984,16.57473 110.3179,26.3811 7.6735,1.83196 5.9069,14.54547 3.1619,19.76835 -30.9054,1.25181 -61.8764,0.77676 -92.8089,1.06045 -68.1494,-0.021 -136.3117,0.36983 -204.4512,-0.94307 -1.1982,-0.0852 -2.4365,-0.0354 -3.6057,-0.28556 z m 300.23,-2.3714 c 3.528,-6.73656 2.2108,-16.97885 -7.3001,-16.30089 -37.6669,-9.56686 -75.7545,-17.44678 -113.3125,-27.42911 -7.6086,-3.36403 -9.6366,-12.15258 -9.8995,-19.70217 -2.9396,-32.73074 -2.4186,-65.65788 -2.0055,-98.48363 0.5057,-15.58823 0.5855,-31.34763 3.5697,-46.69221 2.3962,-7.91134 10.2156,-11.35913 17.7573,-12.43021 12.4739,-3.30472 25.2519,-5.55463 37.512,-9.59888 1.9142,-12.34683 1.1464,-25.03177 1.1795,-37.52235 -0.5045,-8.01058 0.9716,-17.54502 -5.8929,-23.37434 -6.4517,-7.07084 -16.736,-5.36086 -25.321,-6.43503 -35.5352,-2.07009 -71.273,-2.15801 -106.7244,1.26264 -8.4833,1.27416 -16.5157,9.15694 -15.6101,18.16505 -0.5309,16.18623 0.016,32.38115 0.1194,48.57053 15.3423,3.65753 30.7745,6.97103 46,11.092 8.9916,3.06952 10.7932,13.10588 11.2771,21.36271 3.1483,37.3951 2.8736,75.01608 1.5475,112.49289 -0.8991,11.24154 -0.4757,22.91677 -4.0505,33.71437 -4.6004,9.71917 -16.5617,10.16801 -25.6049,12.68924 -33.973,8.1069 -68.1029,15.54834 -102.0454,23.78039 -2.7197,4.84103 -3.8169,18.23388 5.4882,15.72576 60.626,1.08053 121.2698,0.51814 181.9032,0.67681 35.8131,-0.21101 71.6484,0.40001 107.4449,-0.80565 1.3399,-0.13706 2.7445,-0.11336 3.968,-0.75792 z"
         fill="#fe6c1e"
         id="path4"
         style="stroke-width:8;stroke-miterlimit:4;stroke-dasharray:none" />
    </g>
  </g>
</svg>
